# xmcd
#
# Track frame offsets:
#	150
#	20710
#	34482
#	46462
#	59798
#	79101
#	89233
#
# Disc length: 1341 seconds
#
# Revision: 0
# Processed by: cddbd v1.5.2PL0 Copyright (c) Steve Scherf et al.
# Submitted via: audiograbber 1.83.01
#
DISCID=67053b07
DTITLE=Texas Country Artist - Texas Country Artist 013
DYEAR=2009
DGENRE=Country
TTITLE0=David Tyler - John 
TTITLE1=Kim Carson - Baby Ride Easy
TTITLE2=Larry Youngblood - I´ve Got To Be More Careful 
TTITLE3=Rick Stancil - Your Gonna Make It
TTITLE4=Freddie Live - Lonelely Conversation 
TTITLE5=Liz Talley - Johnny Getting Out Of Jail Bbq 
TTITLE6=Keith Mccoy - Gone Way Too Long 
EXTD=
EXTT0=
EXTT1=
EXTT2=
EXTT3=
EXTT4=
EXTT5=
EXTT6=
PLAYORDER=
